<svg width="24" height="18" viewBox="0 0 24 18" fill="none" xmlns="http://www.w3.org/2000/svg">
<path d="M9 16.5H15C20 16.5 22 15 22 11.25V6.75C22 3 20 1.5 15 1.5H9C4 1.5 2 3 2 6.75V11.25C2 15 4 16.5 9 16.5Z" stroke="white" stroke-width="1.5" stroke-linecap="round" stroke-linejoin="round"/>
<path d="M12 11.625C12.4596 11.625 12.9148 11.5571 13.3394 11.4252C13.764 11.2933 14.1499 11.0999 14.4749 10.8562C14.7999 10.6124 15.0577 10.323 15.2336 10.0045C15.4095 9.68606 15.5 9.34472 15.5 9C15.5 8.65528 15.4095 8.31394 15.2336 7.99546C15.0577 7.67698 14.7999 7.3876 14.4749 7.14384C14.1499 6.90009 13.764 6.70673 13.3394 6.57482C12.9148 6.4429 12.4596 6.375 12 6.375C11.0717 6.375 10.1815 6.65156 9.52513 7.14384C8.86875 7.63613 8.5 8.30381 8.5 9C8.5 9.69619 8.86875 10.3639 9.52513 10.8562C10.1815 11.3484 11.0717 11.625 12 11.625Z" stroke="white" stroke-width="1.5" stroke-linecap="round" stroke-linejoin="round"/>
<path d="M17.636 5.25H17.648" stroke="white" stroke-width="2" stroke-linecap="round" stroke-linejoin="round"/>
</svg>
