<svg width="18" height="18" viewBox="0 0 18 18" fill="none" xmlns="http://www.w3.org/2000/svg">
<path d="M13.5628 18C12.6167 18 11.6205 17.774 10.5907 17.3386C9.58605 16.9116 8.57302 16.3256 7.58512 15.614C6.60558 14.894 5.65953 14.0902 4.76372 13.2112C3.87628 12.3153 3.07256 11.3693 2.36093 10.3981C1.64093 9.39349 1.06326 8.38884 0.653023 7.41767C0.217674 6.37953 0 5.37488 0 4.42884C0 3.77581 0.117209 3.15628 0.343256 2.5786C0.577674 1.98419 0.954419 1.43163 1.46512 0.954419C2.10977 0.31814 2.84651 0 3.63349 0C3.96 0 4.29488 0.0753488 4.57953 0.209302C4.90605 0.36 5.18233 0.586046 5.38326 0.887442L7.32558 3.62512C7.5014 3.86791 7.63535 4.10233 7.72744 4.33674C7.83628 4.58791 7.89488 4.83907 7.89488 5.08186C7.89488 5.4 7.80279 5.70977 7.62698 6.00279C7.4731 6.26432 7.2844 6.50372 7.06605 6.71442L6.49674 7.30884C6.50512 7.33395 6.51349 7.3507 6.52186 7.36744C6.62233 7.54326 6.82326 7.84465 7.20837 8.29674C7.6186 8.76558 8.00372 9.19256 8.38884 9.58605C8.88279 10.0716 9.29302 10.4567 9.67814 10.7749C10.1553 11.1767 10.4651 11.3777 10.6493 11.4698L10.6326 11.5116L11.2437 10.9088C11.5033 10.6493 11.7544 10.4567 11.9972 10.3312C12.4577 10.0465 13.0437 9.99628 13.6298 10.2391C13.8474 10.3312 14.0819 10.4567 14.333 10.6326L17.1126 12.6084C17.4223 12.8177 17.6484 13.0856 17.7823 13.4037C17.9079 13.7219 17.9665 14.0149 17.9665 14.3079C17.9665 14.7098 17.8744 15.1116 17.6986 15.4884C17.5228 15.8651 17.3051 16.1916 17.0288 16.493C16.5516 17.0205 16.0326 17.3972 15.4298 17.64C14.8521 17.8744 14.2242 18 13.5628 18ZM3.63349 1.25581C3.17302 1.25581 2.74605 1.45674 2.33581 1.8586C1.9507 2.2186 1.68279 2.61209 1.51535 3.03907C1.33953 3.47442 1.25581 3.93488 1.25581 4.42884C1.25581 5.20744 1.44 6.05302 1.80837 6.92372C2.18512 7.81116 2.71256 8.73209 3.38233 9.65302C4.05209 10.574 4.81395 11.4698 5.65116 12.3153C6.48837 13.1442 7.39256 13.9144 8.32186 14.5926C9.22605 15.254 10.1553 15.7898 11.0763 16.1749C12.5079 16.786 13.8474 16.9284 14.9526 16.4679C15.3795 16.2921 15.7563 16.0242 16.0995 15.6391C16.2921 15.4298 16.4428 15.2037 16.5684 14.9358C16.6688 14.7265 16.7191 14.5088 16.7191 14.2912C16.7191 14.1572 16.694 14.0233 16.627 13.8726C16.5735 13.7689 16.4923 13.6819 16.3926 13.6214L13.613 11.6456C13.4456 11.5284 13.2949 11.4447 13.1526 11.386C12.9684 11.3107 12.893 11.2353 12.6084 11.4112C12.4409 11.4949 12.2902 11.6205 12.1228 11.7879L11.4865 12.4158C11.16 12.734 10.6577 12.8093 10.2726 12.667L10.0465 12.5665C9.70326 12.3823 9.3014 12.0977 8.85767 11.7209C8.45581 11.3777 8.02046 10.9758 7.49302 10.4567C7.08279 10.0381 6.67256 9.59442 6.24558 9.10046C5.85209 8.64 5.56744 8.24651 5.39163 7.92L5.29116 7.66884C5.24093 7.47628 5.22419 7.36744 5.22419 7.25023C5.22419 6.94884 5.33302 6.68093 5.54233 6.47163L6.17023 5.8186C6.33767 5.65116 6.46326 5.49209 6.54698 5.34977C6.61395 5.24093 6.63907 5.14884 6.63907 5.06512C6.63907 4.99814 6.61395 4.89767 6.57209 4.79721C6.51349 4.66326 6.4214 4.51256 6.30419 4.35349L4.36186 1.60744C4.28348 1.49496 4.17656 1.40537 4.05209 1.34791C3.91814 1.2893 3.77581 1.25581 3.63349 1.25581ZM10.6326 11.52L10.4986 12.0893L10.7247 11.5033C10.6828 11.4949 10.6493 11.5033 10.6326 11.52ZM14.4419 7.11628C14.0986 7.11628 13.814 6.83163 13.814 6.48837C13.814 6.18698 13.5126 5.55907 13.0102 5.02326C12.5163 4.49581 11.9721 4.18605 11.5116 4.18605C11.1684 4.18605 10.8837 3.9014 10.8837 3.55814C10.8837 3.21488 11.1684 2.93023 11.5116 2.93023C12.3237 2.93023 13.1777 3.36558 13.9228 4.16093C14.6177 4.90605 15.0698 5.8186 15.0698 6.48837C15.0698 6.83163 14.7851 7.11628 14.4419 7.11628ZM17.3721 7.11628C17.0288 7.11628 16.7442 6.83163 16.7442 6.48837C16.7442 3.6 14.4 1.25581 11.5116 1.25581C11.1684 1.25581 10.8837 0.971163 10.8837 0.627907C10.8837 0.284651 11.1684 0 11.5116 0C15.0865 0 18 2.91349 18 6.48837C18 6.83163 17.7153 7.11628 17.3721 7.11628Z" fill="white"/>
</svg>
